<svg width="604" height="190" viewBox="0 0 604 190" fill="none" xmlns="http://www.w3.org/2000/svg">
<path d="M183.945 81.7139C189.524 81.6051 195.469 81.7446 201.081 81.7889C200.932 88.212 199.749 95.425 198.425 101.699C195.996 111.126 192.68 119.855 187.767 128.281C175.1 150.372 154.084 166.441 129.449 172.87C73.8117 187.31 16.6766 159.11 2.47539 101.553C1.31964 96.8661 -1.43135 85.9202 0.925902 81.936C5.7784 81.5969 11.9839 81.7364 16.9444 81.7109C17.6891 96.1069 22.5289 109.991 30.8936 121.731C43.3481 139.09 63.8111 151.49 84.8584 154.932C108.279 159 132.349 153.436 151.61 139.501C172.739 124.22 179.955 106.174 183.945 81.7139Z" fill="#4A9B11"/>
<path d="M262.649 44.5056L312.681 44.5476L312.608 59.3698C292.674 85.5602 273.035 111.973 253.694 138.605L309.804 138.582L309.785 154.54L281.135 154.579C264.197 154.539 246.406 154.239 229.538 154.703L229.597 139.23C232.144 135.516 234.788 131.769 237.53 128.195C254.381 106.229 270.213 83.0928 287.279 61.3307L232.445 61.4815L232.508 44.6564C242.413 44.4741 252.716 44.5536 262.649 44.5056Z" fill="#2D3135"/>
<path d="M135.566 0.138302C151.611 -0.640388 179.562 1.29432 184.503 21.0962C190.284 44.2611 154.194 56.5738 136.709 60.8889C125.94 63.489 115.027 65.456 104.027 66.7793C92.9335 68.0884 28.0413 71.618 22.7808 68.4447C24.6273 66.0802 40.804 64.3202 44.9065 63.6901C63.4022 60.1379 146.458 41.4666 148.917 22.8321C143.901 4.52913 85.2362 30.4637 82.879 29.3272C83.1257 27.4795 83.9065 26.2559 85.144 24.8674C97.585 10.9154 117.381 2.00326 135.566 0.138302Z" fill="#4A9B11"/>
<path d="M343.955 77.3397C353.022 76.843 361.137 76.8348 369.387 81.4544C377.112 85.7942 382.79 93.0305 385.175 101.566C386.66 106.962 388.362 117.006 385.46 122.146C380.54 124.797 343.377 122.585 333.848 123.229C333.33 124.874 335 129.933 335.89 131.411C345.132 146.753 366.642 139.981 378.522 133.599L379.452 133.687C382.685 136.333 385.647 140.898 388.16 144.374C383.21 149.199 377.157 152.74 370.527 154.689C309.604 172.601 290.847 90.5046 343.955 77.3397ZM332.785 109.444L352.947 109.348L368.66 109.369C365.705 97.1602 362.165 93.0988 349.235 92.3936C338.355 94.2773 335.328 99.3418 332.785 109.444Z" fill="#2D3135"/>
<path d="M519.875 78.7004C526.955 78.5166 534.035 78.4454 541.115 78.4881C549.133 95.5075 555.403 115.138 563.848 132.374C570.178 116.678 576.988 95.0574 582.823 78.7056C589.67 78.5369 596.72 78.6404 603.583 78.6629C595.895 98.7663 587.968 118.779 579.8 138.697C569.66 160.022 568.318 182.525 539.893 189.059C528.695 191.634 530.158 183.996 528.373 175.344C543.65 171.379 548.375 170.239 554.48 155.203L531.598 105.724C528.41 98.7648 522.02 85.5616 519.875 78.7004Z" fill="#2D3135"/>
<path d="M418.527 77.3021C432.14 76.1266 442.52 77.2061 453.972 84.846C451.677 89.6546 449.3 94.4243 446.847 99.1527C440.21 95.191 416.195 85.5759 414.387 98.8204C415.175 101.454 417.897 103.987 420.53 104.795C440.21 110.843 467.202 119.839 451.317 145.569C446.735 152.995 436.325 155.234 427.752 156.47C413.472 157.265 403.602 154.811 392.03 146.401C395.082 142.019 397.535 138.209 400.325 133.682C406.242 137.223 411.342 139.958 418.347 140.84C424.392 141.601 435.432 141.162 436.452 133.339C433.265 122.956 399.357 123.965 396.215 105.407C393.29 88.14 403.302 80.8603 418.527 77.3021Z" fill="#2D3135"/>
<path d="M472.272 57.6293C478.587 57.5018 484.902 57.45 491.217 57.4725C491.39 64.399 491.255 71.543 491.202 78.4897C499.452 78.6225 507.71 78.57 515.96 78.3314C515.577 82.2976 515.66 89.2398 515.547 93.5121C507.98 93.9059 498.86 93.6411 491.165 93.5991C491.277 103.171 489.515 130.907 494.12 138.267C497.142 143.092 507.74 137.834 514.295 138.483C516.335 139.962 515.847 140.273 516.56 143.236L518.952 151.916C500.682 159.374 475.535 160.661 472.377 136.513C470.795 124.407 471.807 106.279 471.927 93.7094L459.275 93.6036L459.65 78.2954C463.715 78.3996 467.78 78.4747 471.837 78.5189C471.807 72.0344 471.552 63.9399 472.272 57.6293Z" fill="#2D3135"/>
<path d="M113.983 81.8332C132.717 80.99 157.396 81.6674 176.58 81.6802C175.444 93.6366 171.099 104.944 164.867 115.127C163.886 116.606 157.506 126.119 155.493 124.337C143.503 113.724 123.113 96.1962 113.648 83.5759L113.983 81.8332Z" fill="#4A9B11"/>
<path d="M104.179 89.4626C110.155 91.2488 141.723 124.54 148.757 131.609C144.393 134.989 141.333 136.947 136.702 139.814C125.124 146.031 115.549 147.731 102.939 149.124C102.608 140.625 101.463 94.3036 104.179 89.4626Z" fill="#4A9B11"/>
<path d="M24.0962 81.7492L25.333 81.7282C32.6147 81.6224 82.9292 80.8152 85.1267 82.9495C83.7887 87.6884 69.7285 100.522 65.5127 104.687C58.3472 111.72 51.0924 119.022 43.6254 125.705C33.1224 113.81 24.3864 97.9516 24.0962 81.7492Z" fill="#4A9B11"/>
<path d="M92.3353 90.4109C93.1438 90.894 93.6342 91.4956 94.3115 92.1723C95.8295 96.7634 95.0592 141.399 94.8245 148.767C82.1367 147.825 76.772 146.041 65.3135 141.238C59.4237 138.156 55.907 135.86 50.897 131.523C64.637 117.637 78.0568 103.747 92.3353 90.4109Z" fill="#4A9B11"/>
</svg>
